<svg xmlns="http://www.w3.org/2000/svg" viewBox="0 0 947.33 770"><defs><style>.cls-1,.cls-2{fill:#774582;}.cls-1{fill-rule:evenodd;}</style></defs><title>logoNAFET</title><g id="Camada_2" data-name="Camada 2"><g id="logo"><path class="cls-1" d="M324.81,303.4c55.24,12.81,107.49,45.78,152.4,128.54C523,352.7,576.72,313.79,636.27,304.48c-78.16,33.44-127,92.46-133.6,176.79,41.41,65.05-19.16,183.74-29.34,274.59-8.09-91.93-69.5-208.35-24.29-275.78C427,369.41,379,328,324.81,303.4Z"/><path class="cls-2" d="M324.81,303.4c55.24,12.81,107.49,45.78,152.4,128.54C523,352.7,576.72,313.79,636.27,304.48c-78.16,33.44-127,92.46-133.6,176.79,41.41,65.05-19.16,183.74-29.34,274.59-8.09-91.93-69.5-208.35-24.29-275.78C427,369.41,379,328,324.81,303.4Z"/><path class="cls-1" d="M477.6,287.48a32.68,32.68,0,1,1-32.67,32.68A32.68,32.68,0,0,1,477.6,287.48Z"/><path class="cls-2" d="M477.6,287.48a32.68,32.68,0,1,1-32.67,32.68A32.68,32.68,0,0,1,477.6,287.48Z"/><path class="cls-1" d="M219,215.86c22,5.11,42.87,18.26,60.78,51.26,18.26-31.6,39.69-47.12,63.44-50.83-31.17,13.33-50.64,36.88-53.28,70.51,16.51,25.94-7.65,73.28-11.71,109.52-3.23-36.67-27.72-83.1-9.69-110C259.69,242.18,240.57,225.65,219,215.86Z"/><path class="cls-2" d="M219,215.86c22,5.11,42.87,18.26,60.78,51.26,18.26-31.6,39.69-47.12,63.44-50.83-31.17,13.33-50.64,36.88-53.28,70.51,16.51,25.94-7.65,73.28-11.71,109.52-3.23-36.67-27.72-83.1-9.69-110C259.69,242.18,240.57,225.65,219,215.86Z"/><circle class="cls-2" cx="279.89" cy="222.54" r="13.03" transform="translate(57.03 502.18) rotate(-89.94)"/><circle class="cls-2" cx="279.89" cy="222.54" r="13.03" transform="translate(57.03 502.18) rotate(-89.94)"/><path class="cls-1" d="M631.64,215.86c22,5.11,42.87,18.26,60.78,51.26,18.27-31.6,39.69-47.12,63.44-50.83-31.17,13.33-50.63,36.88-53.28,70.51,16.52,25.94-7.65,73.28-11.7,109.52-3.23-36.67-27.72-83.1-9.69-110C672.38,242.18,653.27,225.65,631.64,215.86Z"/><path class="cls-2" d="M631.64,215.86c22,5.11,42.87,18.26,60.78,51.26,18.27-31.6,39.69-47.12,63.44-50.83-31.17,13.33-50.63,36.88-53.28,70.51,16.52,25.94-7.65,73.28-11.7,109.52-3.23-36.67-27.72-83.1-9.69-110C672.38,242.18,653.27,225.65,631.64,215.86Z"/><path class="cls-1" d="M692.58,209.51a13,13,0,1,1-13,13A13,13,0,0,1,692.58,209.51Z"/><path class="cls-2" d="M692.58,209.51a13,13,0,1,1-13,13A13,13,0,0,1,692.58,209.51Z"/><path class="cls-1" d="M399.41,8.29c28.77,6.68,56,23.85,79.4,67C502.66,34,530.65,13.71,561.67,8.85,521,26.28,495.53,57,492.07,101c21.58,33.89-10,95.73-15.29,143.06-4.21-47.89-36.21-108.55-12.65-143.67C452.62,42.68,427.66,21.09,399.41,8.29Z"/><path class="cls-2" d="M399.41,8.29c28.77,6.68,56,23.85,79.4,67C502.66,34,530.65,13.71,561.67,8.85,521,26.28,495.53,57,492.07,101c21.58,33.89-10,95.73-15.29,143.06-4.21-47.89-36.21-108.55-12.65-143.67C452.62,42.68,427.66,21.09,399.41,8.29Z"/><path class="cls-1" d="M479,0a17,17,0,1,1-17,17A17,17,0,0,1,479,0Z"/><path class="cls-2" d="M479,0a17,17,0,1,1-17,17A17,17,0,0,1,479,0Z"/><path class="cls-1" d="M274,73.51c12.28,2.85,23.89,10.17,33.87,28.56C318,84.46,329.94,75.82,343.17,73.75,325.8,81.18,315,94.3,313.48,113c9.21,14.46-4.26,40.83-6.52,61-1.8-20.43-15.44-46.3-5.39-61.28C296.66,88.18,286,79,274,73.51Z"/><path class="cls-2" d="M274,73.51c12.28,2.85,23.89,10.17,33.87,28.56C318,84.46,329.94,75.82,343.17,73.75,325.8,81.18,315,94.3,313.48,113c9.21,14.46-4.26,40.83-6.52,61-1.8-20.43-15.44-46.3-5.39-61.28C296.66,88.18,286,79,274,73.51Z"/><path class="cls-1" d="M307.91,70a7.26,7.26,0,1,1-7.26,7.26A7.26,7.26,0,0,1,307.91,70Z"/><path class="cls-2" d="M307.91,70a7.26,7.26,0,1,1-7.26,7.26A7.26,7.26,0,0,1,307.91,70Z"/><path class="cls-1" d="M152,132.7c12.27,2.84,23.88,10.17,33.86,28.56C196,143.65,208,135,221.19,132.93c-17.36,7.44-28.21,20.55-29.68,39.29,9.2,14.45-4.26,40.83-6.52,61-1.8-20.43-15.45-46.3-5.4-61.28C174.68,147.36,164,138.15,152,132.7Z"/><path class="cls-2" d="M152,132.7c12.27,2.84,23.88,10.17,33.86,28.56C196,143.65,208,135,221.19,132.93c-17.36,7.44-28.21,20.55-29.68,39.29,9.2,14.45-4.26,40.83-6.52,61-1.8-20.43-15.45-46.3-5.4-61.28C174.68,147.36,164,138.15,152,132.7Z"/><path class="cls-1" d="M185.94,129.16a7.26,7.26,0,1,1-7.26,7.26A7.26,7.26,0,0,1,185.94,129.16Z"/><path class="cls-2" d="M185.94,129.16a7.26,7.26,0,1,1-7.26,7.26A7.26,7.26,0,0,1,185.94,129.16Z"/><path class="cls-1" d="M748.67,132.7c12.28,2.84,23.89,10.17,33.87,28.56,10.17-17.61,22.11-26.26,35.34-28.33-17.36,7.44-28.21,20.55-29.68,39.29,9.2,14.45-4.26,40.83-6.52,61-1.8-20.43-15.45-46.3-5.4-61.28C771.37,147.36,760.72,138.15,748.67,132.7Z"/><path class="cls-2" d="M748.67,132.7c12.28,2.84,23.89,10.17,33.87,28.56,10.17-17.61,22.11-26.26,35.34-28.33-17.36,7.44-28.21,20.55-29.68,39.29,9.2,14.45-4.26,40.83-6.52,61-1.8-20.43-15.45-46.3-5.4-61.28C771.37,147.36,760.72,138.15,748.67,132.7Z"/><path class="cls-1" d="M782.62,129.16a7.26,7.26,0,1,1-7.26,7.26A7.26,7.26,0,0,1,782.62,129.16Z"/><path class="cls-2" d="M782.62,129.16a7.26,7.26,0,1,1-7.26,7.26A7.26,7.26,0,0,1,782.62,129.16Z"/><path class="cls-1" d="M605.84,73.51c12.27,2.85,23.88,10.17,33.86,28.56C649.88,84.46,661.81,75.82,675,73.75,657.68,81.18,646.83,94.3,645.36,113c9.2,14.46-4.26,40.83-6.52,61-1.8-20.43-15.45-46.3-5.4-61.28C628.53,88.18,617.89,79,605.84,73.51Z"/><path class="cls-2" d="M605.84,73.51c12.27,2.85,23.88,10.17,33.86,28.56C649.88,84.46,661.81,75.82,675,73.75,657.68,81.18,646.83,94.3,645.36,113c9.2,14.46-4.26,40.83-6.52,61-1.8-20.43-15.45-46.3-5.4-61.28C628.53,88.18,617.89,79,605.84,73.51Z"/><path class="cls-1" d="M639.79,70a7.26,7.26,0,1,1-7.26,7.26A7.26,7.26,0,0,1,639.79,70Z"/><path class="cls-2" d="M639.79,70a7.26,7.26,0,1,1-7.26,7.26A7.26,7.26,0,0,1,639.79,70Z"/><path class="cls-1" d="M4.52,249.78c81.42,221.3,168.84,311.74,259.41,333.54-3.2-41.64-94.59-81-112.55-135.2C325.68,512.77,439.88,615.66,473.26,770,184.41,771.87-34.52,539.06,4.52,249.78"/><path class="cls-1" d="M942.81,249.78C861.39,471.08,774,561.52,683.39,583.32c3.21-41.64,94.6-81,112.56-135.2C621.65,512.77,507.45,615.66,474.07,770c288.84,1.88,507.78-230.93,468.74-520.21"/></g></g></svg>